<svg width="16" height="16" viewBox="0 0 16 16" fill="none" xmlns="http://www.w3.org/2000/svg">
<g clip-path="url(#clip0_223_628)">
<path d="M7.33459 2.6704L2.66793 2.67241C2.3143 2.67257 1.97523 2.81319 1.72529 3.06334C1.47534 3.3135 1.33502 3.6527 1.33517 4.00632L1.33919 13.3397C1.33934 13.6933 1.47996 14.0324 1.73012 14.2823C1.98027 14.5322 2.31947 14.6726 2.67309 14.6724L12.0064 14.6684C12.36 14.6682 12.6991 14.5276 12.9491 14.2775C13.199 14.0273 13.3393 13.6881 13.3392 13.3345L13.3372 8.66782M12.3342 1.66825C12.5993 1.40292 12.9589 1.25377 13.334 1.25361C13.7091 1.25344 14.0688 1.40229 14.3342 1.66739C14.5995 1.93249 14.7486 2.29214 14.7488 2.66721C14.749 3.04228 14.6001 3.40206 14.335 3.66739L8.00442 10.0034L5.33804 10.6713L6.00356 8.00431L12.3342 1.66825Z" stroke="#958F84" stroke-width="1.5" stroke-linecap="round" stroke-linejoin="round"/>
</g>
<defs>
<clipPath id="clip0_223_628">
<rect width="16" height="16" fill="white" transform="translate(0 0.00689697) rotate(-0.0246751)"/>
</clipPath>
</defs>
</svg>
